<svg xmlns="http://www.w3.org/2000/svg" xmlns:xlink="http://www.w3.org/1999/xlink" width="500" zoomAndPan="magnify" viewBox="0 0 375 374.999991" height="500" preserveAspectRatio="xMidYMid meet" version="1.0"><defs><g/><clipPath id="2844ad92f3"><path d="M 4.78125 154.386719 L 70.03125 154.386719 L 70.03125 219.636719 L 4.78125 219.636719 Z M 4.78125 154.386719 " clip-rule="nonzero"/></clipPath><clipPath id="f7d0962e54"><path d="M 15.308594 183.855469 L 13.203125 183.855469 L 13.203125 181.75 L 15.308594 181.75 Z M 15.308594 188.066406 L 13.203125 188.066406 L 13.203125 185.960938 L 15.308594 185.960938 Z M 15.308594 192.273438 L 13.203125 192.273438 L 13.203125 190.171875 L 15.308594 190.171875 Z M 42.667969 179.644531 L 44.773438 179.644531 L 44.773438 181.75 L 42.667969 181.75 Z M 40.566406 181.75 L 38.460938 181.75 L 38.460938 179.644531 L 40.566406 179.644531 Z M 46.878906 177.542969 L 38.460938 177.542969 L 38.460938 175.4375 L 46.878906 175.4375 Z M 51.089844 217.535156 C 41.800781 217.535156 34.25 209.980469 34.25 200.695312 C 34.25 191.40625 41.800781 183.855469 51.089844 183.855469 C 60.375 183.855469 67.929688 191.40625 67.929688 200.695312 C 67.929688 209.980469 60.375 217.535156 51.089844 217.535156 Z M 48.984375 181.875 C 41.679688 182.6875 35.636719 187.671875 33.25 194.378906 L 11.097656 194.378906 L 11.097656 173.332031 L 48.984375 173.332031 Z M 10.042969 198.589844 C 8.300781 198.589844 6.886719 197.175781 6.886719 195.433594 L 6.886719 169.121094 L 44.773438 169.121094 L 44.773438 167.015625 L 6.886719 167.015625 L 6.886719 163.859375 C 6.886719 162.117188 8.300781 160.703125 10.042969 160.703125 L 13.203125 160.703125 L 13.203125 162.808594 C 13.203125 163.96875 14.148438 164.914062 15.308594 164.914062 L 19.515625 164.914062 C 20.675781 164.914062 21.621094 163.96875 21.621094 162.808594 L 21.621094 160.703125 L 25.832031 160.703125 L 25.832031 162.808594 C 25.832031 163.96875 26.777344 164.914062 27.9375 164.914062 L 32.144531 164.914062 C 33.304688 164.914062 34.25 163.96875 34.25 162.808594 L 34.25 160.703125 L 38.460938 160.703125 L 38.460938 162.808594 C 38.460938 163.96875 39.40625 164.914062 40.566406 164.914062 L 44.773438 164.914062 C 45.933594 164.914062 46.878906 163.96875 46.878906 162.808594 L 46.878906 160.703125 L 50.035156 160.703125 C 51.78125 160.703125 53.195312 162.117188 53.195312 163.859375 L 53.195312 167.015625 L 51.089844 167.015625 L 51.089844 169.121094 L 53.195312 169.121094 L 53.195312 181.875 C 52.503906 181.796875 51.800781 181.75 51.089844 181.75 L 51.089844 173.332031 C 51.089844 172.171875 50.144531 171.226562 48.984375 171.226562 L 11.097656 171.226562 C 9.9375 171.226562 8.992188 172.171875 8.992188 173.332031 L 8.992188 194.378906 C 8.992188 195.539062 9.9375 196.484375 11.097656 196.484375 L 32.636719 196.484375 C 32.480469 197.175781 32.351562 197.875 32.269531 198.589844 Z M 15.308594 156.492188 L 19.515625 156.492188 L 19.515625 162.808594 L 15.308594 162.808594 Z M 27.9375 156.492188 L 32.144531 156.492188 L 32.144531 162.808594 L 27.9375 162.808594 Z M 40.566406 156.492188 L 44.773438 156.492188 L 44.773438 162.808594 L 40.566406 162.808594 Z M 55.300781 182.242188 L 55.300781 163.859375 C 55.300781 160.957031 52.9375 158.597656 50.035156 158.597656 L 46.878906 158.597656 L 46.878906 156.492188 C 46.878906 155.332031 45.933594 154.386719 44.773438 154.386719 L 40.566406 154.386719 C 39.40625 154.386719 38.460938 155.332031 38.460938 156.492188 L 38.460938 158.597656 L 34.25 158.597656 L 34.25 156.492188 C 34.25 155.332031 33.304688 154.386719 32.144531 154.386719 L 27.9375 154.386719 C 26.777344 154.386719 25.832031 155.332031 25.832031 156.492188 L 25.832031 158.597656 L 21.621094 158.597656 L 21.621094 156.492188 C 21.621094 155.332031 20.675781 154.386719 19.515625 154.386719 L 15.308594 154.386719 C 14.148438 154.386719 13.203125 155.332031 13.203125 156.492188 L 13.203125 158.597656 L 10.042969 158.597656 C 7.140625 158.597656 4.78125 160.957031 4.78125 163.859375 L 4.78125 195.433594 C 4.78125 198.335938 7.140625 200.695312 10.042969 200.695312 L 32.144531 200.695312 C 32.144531 211.140625 40.644531 219.636719 51.089844 219.636719 C 61.535156 219.636719 70.03125 211.140625 70.03125 200.695312 C 70.03125 191.699219 63.722656 184.160156 55.300781 182.242188 Z M 25.832031 177.542969 C 27.460938 177.542969 28.941406 178.167969 30.066406 179.1875 L 23.726562 185.523438 L 22.367188 184.164062 L 20.878906 185.652344 L 23.726562 188.5 L 31.382812 180.847656 C 31.867188 181.742188 32.144531 182.765625 32.144531 183.855469 C 32.144531 187.339844 29.3125 190.171875 25.832031 190.171875 C 22.347656 190.171875 19.515625 187.339844 19.515625 183.855469 C 19.515625 180.375 22.347656 177.542969 25.832031 177.542969 Z M 25.832031 192.273438 C 30.472656 192.273438 34.25 188.496094 34.25 183.855469 C 34.25 182.183594 33.757812 180.628906 32.910156 179.316406 L 34.996094 177.234375 L 33.507812 175.746094 L 31.554688 177.699219 C 30.050781 176.300781 28.042969 175.4375 25.832031 175.4375 C 21.191406 175.4375 17.410156 179.214844 17.410156 183.855469 C 17.410156 188.496094 21.191406 192.273438 25.832031 192.273438 Z M 48.984375 169.121094 L 46.878906 169.121094 L 46.878906 167.015625 L 48.984375 167.015625 Z M 50.035156 196.484375 L 52.140625 196.484375 L 52.140625 201.128906 L 47.625 205.648438 L 46.136719 204.160156 L 50.035156 200.257812 Z M 63.664062 201.746094 C 63.4375 204.441406 62.375 206.894531 60.726562 208.839844 L 57.785156 205.902344 L 56.296875 207.390625 L 59.234375 210.332031 C 57.289062 211.980469 54.835938 213.046875 52.140625 213.269531 L 52.140625 209.113281 L 50.035156 209.113281 L 50.035156 213.269531 C 47.34375 213.046875 44.890625 211.980469 42.945312 210.332031 L 45.878906 207.390625 L 44.390625 205.902344 L 41.453125 208.839844 C 39.804688 206.894531 38.738281 204.441406 38.511719 201.746094 L 42.667969 201.746094 L 42.667969 199.640625 L 38.511719 199.640625 C 38.738281 196.949219 39.804688 194.496094 41.453125 192.550781 L 44.390625 195.484375 L 45.878906 193.996094 L 42.945312 191.058594 C 44.890625 189.410156 47.34375 188.34375 50.035156 188.117188 L 50.035156 192.273438 L 52.140625 192.273438 L 52.140625 188.117188 C 54.835938 188.34375 57.289062 189.410156 59.234375 191.058594 L 56.296875 193.996094 L 57.785156 195.484375 L 60.726562 192.550781 C 62.375 194.496094 63.4375 196.949219 63.664062 199.640625 L 59.507812 199.640625 L 59.507812 201.746094 Z M 51.089844 185.960938 C 42.964844 185.960938 36.355469 192.570312 36.355469 200.695312 C 36.355469 208.816406 42.964844 215.429688 51.089844 215.429688 C 59.210938 215.429688 65.824219 208.816406 65.824219 200.695312 C 65.824219 192.570312 59.210938 185.960938 51.089844 185.960938 Z M 51.089844 185.960938 " clip-rule="nonzero"/></clipPath><clipPath id="147818dfa4"><path d="M 15.308594 183.855469 L 13.203125 183.855469 L 13.203125 181.75 L 15.308594 181.75 Z M 15.308594 188.066406 L 13.203125 188.066406 L 13.203125 185.960938 L 15.308594 185.960938 Z M 15.308594 192.273438 L 13.203125 192.273438 L 13.203125 190.171875 L 15.308594 190.171875 Z M 42.667969 179.644531 L 44.773438 179.644531 L 44.773438 181.75 L 42.667969 181.75 Z M 40.566406 181.75 L 38.460938 181.75 L 38.460938 179.644531 L 40.566406 179.644531 Z M 46.878906 177.542969 L 38.460938 177.542969 L 38.460938 175.4375 L 46.878906 175.4375 Z M 51.089844 217.535156 C 41.800781 217.535156 34.25 209.980469 34.25 200.695312 C 34.25 191.40625 41.800781 183.855469 51.089844 183.855469 C 60.375 183.855469 67.929688 191.40625 67.929688 200.695312 C 67.929688 209.980469 60.375 217.535156 51.089844 217.535156 Z M 48.984375 181.875 C 41.679688 182.6875 35.636719 187.671875 33.25 194.378906 L 11.097656 194.378906 L 11.097656 173.332031 L 48.984375 173.332031 Z M 10.042969 198.589844 C 8.300781 198.589844 6.886719 197.175781 6.886719 195.433594 L 6.886719 169.121094 L 44.773438 169.121094 L 44.773438 167.015625 L 6.886719 167.015625 L 6.886719 163.859375 C 6.886719 162.117188 8.300781 160.703125 10.042969 160.703125 L 13.203125 160.703125 L 13.203125 162.808594 C 13.203125 163.96875 14.148438 164.914062 15.308594 164.914062 L 19.515625 164.914062 C 20.675781 164.914062 21.621094 163.96875 21.621094 162.808594 L 21.621094 160.703125 L 25.832031 160.703125 L 25.832031 162.808594 C 25.832031 163.96875 26.777344 164.914062 27.9375 164.914062 L 32.144531 164.914062 C 33.304688 164.914062 34.25 163.96875 34.25 162.808594 L 34.25 160.703125 L 38.460938 160.703125 L 38.460938 162.808594 C 38.460938 163.96875 39.40625 164.914062 40.566406 164.914062 L 44.773438 164.914062 C 45.933594 164.914062 46.878906 163.96875 46.878906 162.808594 L 46.878906 160.703125 L 50.035156 160.703125 C 51.78125 160.703125 53.195312 162.117188 53.195312 163.859375 L 53.195312 167.015625 L 51.089844 167.015625 L 51.089844 169.121094 L 53.195312 169.121094 L 53.195312 181.875 C 52.503906 181.796875 51.800781 181.75 51.089844 181.75 L 51.089844 173.332031 C 51.089844 172.171875 50.144531 171.226562 48.984375 171.226562 L 11.097656 171.226562 C 9.9375 171.226562 8.992188 172.171875 8.992188 173.332031 L 8.992188 194.378906 C 8.992188 195.539062 9.9375 196.484375 11.097656 196.484375 L 32.636719 196.484375 C 32.480469 197.175781 32.351562 197.875 32.269531 198.589844 Z M 15.308594 156.492188 L 19.515625 156.492188 L 19.515625 162.808594 L 15.308594 162.808594 Z M 27.9375 156.492188 L 32.144531 156.492188 L 32.144531 162.808594 L 27.9375 162.808594 Z M 40.566406 156.492188 L 44.773438 156.492188 L 44.773438 162.808594 L 40.566406 162.808594 Z M 55.300781 182.242188 L 55.300781 163.859375 C 55.300781 160.957031 52.9375 158.597656 50.035156 158.597656 L 46.878906 158.597656 L 46.878906 156.492188 C 46.878906 155.332031 45.933594 154.386719 44.773438 154.386719 L 40.566406 154.386719 C 39.40625 154.386719 38.460938 155.332031 38.460938 156.492188 L 38.460938 158.597656 L 34.25 158.597656 L 34.25 156.492188 C 34.25 155.332031 33.304688 154.386719 32.144531 154.386719 L 27.9375 154.386719 C 26.777344 154.386719 25.832031 155.332031 25.832031 156.492188 L 25.832031 158.597656 L 21.621094 158.597656 L 21.621094 156.492188 C 21.621094 155.332031 20.675781 154.386719 19.515625 154.386719 L 15.308594 154.386719 C 14.148438 154.386719 13.203125 155.332031 13.203125 156.492188 L 13.203125 158.597656 L 10.042969 158.597656 C 7.140625 158.597656 4.78125 160.957031 4.78125 163.859375 L 4.78125 195.433594 C 4.78125 198.335938 7.140625 200.695312 10.042969 200.695312 L 32.144531 200.695312 C 32.144531 211.140625 40.644531 219.636719 51.089844 219.636719 C 61.535156 219.636719 70.03125 211.140625 70.03125 200.695312 C 70.03125 191.699219 63.722656 184.160156 55.300781 182.242188 Z M 25.832031 177.542969 C 27.460938 177.542969 28.941406 178.167969 30.066406 179.1875 L 23.726562 185.523438 L 22.367188 184.164062 L 20.878906 185.652344 L 23.726562 188.5 L 31.382812 180.847656 C 31.867188 181.742188 32.144531 182.765625 32.144531 183.855469 C 32.144531 187.339844 29.3125 190.171875 25.832031 190.171875 C 22.347656 190.171875 19.515625 187.339844 19.515625 183.855469 C 19.515625 180.375 22.347656 177.542969 25.832031 177.542969 Z M 25.832031 192.273438 C 30.472656 192.273438 34.25 188.496094 34.25 183.855469 C 34.25 182.183594 33.757812 180.628906 32.910156 179.316406 L 34.996094 177.234375 L 33.507812 175.746094 L 31.554688 177.699219 C 30.050781 176.300781 28.042969 175.4375 25.832031 175.4375 C 21.191406 175.4375 17.410156 179.214844 17.410156 183.855469 C 17.410156 188.496094 21.191406 192.273438 25.832031 192.273438 Z M 48.984375 169.121094 L 46.878906 169.121094 L 46.878906 167.015625 L 48.984375 167.015625 Z M 50.035156 196.484375 L 52.140625 196.484375 L 52.140625 201.128906 L 47.625 205.648438 L 46.136719 204.160156 L 50.035156 200.257812 Z M 63.664062 201.746094 C 63.4375 204.441406 62.375 206.894531 60.726562 208.839844 L 57.785156 205.902344 L 56.296875 207.390625 L 59.234375 210.332031 C 57.289062 211.980469 54.835938 213.046875 52.140625 213.269531 L 52.140625 209.113281 L 50.035156 209.113281 L 50.035156 213.269531 C 47.34375 213.046875 44.890625 211.980469 42.945312 210.332031 L 45.878906 207.390625 L 44.390625 205.902344 L 41.453125 208.839844 C 39.804688 206.894531 38.738281 204.441406 38.511719 201.746094 L 42.667969 201.746094 L 42.667969 199.640625 L 38.511719 199.640625 C 38.738281 196.949219 39.804688 194.496094 41.453125 192.550781 L 44.390625 195.484375 L 45.878906 193.996094 L 42.945312 191.058594 C 44.890625 189.410156 47.34375 188.34375 50.035156 188.117188 L 50.035156 192.273438 L 52.140625 192.273438 L 52.140625 188.117188 C 54.835938 188.34375 57.289062 189.410156 59.234375 191.058594 L 56.296875 193.996094 L 57.785156 195.484375 L 60.726562 192.550781 C 62.375 194.496094 63.4375 196.949219 63.664062 199.640625 L 59.507812 199.640625 L 59.507812 201.746094 Z M 51.089844 185.960938 C 42.964844 185.960938 36.355469 192.570312 36.355469 200.695312 C 36.355469 208.816406 42.964844 215.429688 51.089844 215.429688 C 59.210938 215.429688 65.824219 208.816406 65.824219 200.695312 C 65.824219 192.570312 59.210938 185.960938 51.089844 185.960938 " clip-rule="nonzero"/></clipPath><linearGradient x1="0.000000370139" gradientTransform="matrix(0, -65.249998, 65.249998, 0, 37.407784, 219.638242)" y1="0" x2="1" gradientUnits="userSpaceOnUse" y2="0" id="748b56622c"><stop stop-opacity="1" stop-color="rgb(62.399292%, 18.399048%, 100%)" offset="0"/><stop stop-opacity="1" stop-color="rgb(62.199402%, 18.598938%, 100%)" offset="0.00390625"/><stop stop-opacity="1" stop-color="rgb(61.999512%, 18.798828%, 100%)" offset="0.0078125"/><stop stop-opacity="1" stop-color="rgb(61.799622%, 18.998718%, 99.798584%)" offset="0.0117188"/><stop stop-opacity="1" stop-color="rgb(61.599731%, 19.198608%, 99.598694%)" offset="0.015625"/><stop stop-opacity="1" stop-color="rgb(61.376953%, 19.419861%, 99.598694%)" offset="0.0195313"/><stop stop-opacity="1" stop-color="rgb(61.155701%, 19.642639%, 99.598694%)" offset="0.0234375"/><stop stop-opacity="1" stop-color="rgb(60.777283%, 19.833374%, 99.586487%)" offset="0.0273437"/><stop stop-opacity="1" stop-color="rgb(60.398865%, 20.024109%, 99.57428%)" offset="0.03125"/><stop stop-opacity="1" stop-color="rgb(60.198975%, 20.214844%, 99.386597%)" offset="0.0351562"/><stop stop-opacity="1" stop-color="rgb(59.999084%, 20.405579%, 99.198914%)" offset="0.0390625"/><stop stop-opacity="1" stop-color="rgb(59.805298%, 20.602417%, 99.198914%)" offset="0.0429688"/><stop stop-opacity="1" stop-color="rgb(59.611511%, 20.799255%, 99.198914%)" offset="0.046875"/><stop stop-opacity="1" stop-color="rgb(59.405518%, 20.999146%, 99.198914%)" offset="0.0507812"/><stop stop-opacity="1" stop-color="rgb(59.199524%, 21.199036%, 99.198914%)" offset="0.0546875"/><stop stop-opacity="1" stop-color="rgb(58.999634%, 21.398926%, 98.999023%)" offset="0.0585938"/><stop stop-opacity="1" stop-color="rgb(58.799744%, 21.598816%, 98.799133%)" offset="0.0625"/><stop stop-opacity="1" stop-color="rgb(58.583069%, 21.813965%, 98.799133%)" offset="0.0664062"/><stop stop-opacity="1" stop-color="rgb(58.36792%, 22.03064%, 98.799133%)" offset="0.0703125"/><stop stop-opacity="1" stop-color="rgb(57.983398%, 22.219849%, 98.79303%)" offset="0.0742188"/><stop stop-opacity="1" stop-color="rgb(57.598877%, 22.409058%, 98.786926%)" offset="0.078125"/><stop stop-opacity="1" stop-color="rgb(57.450867%, 22.554016%, 98.59314%)" offset="0.0859375"/><stop stop-opacity="1" stop-color="rgb(57.113647%, 22.898865%, 98.399353%)" offset="0.0898438"/><stop stop-opacity="1" stop-color="rgb(56.924438%, 23.098755%, 98.399353%)" offset="0.09375"/><stop stop-opacity="1" stop-color="rgb(56.733704%, 23.298645%, 98.399353%)" offset="0.0976562"/><stop stop-opacity="1" stop-color="rgb(56.542969%, 23.498535%, 98.399353%)" offset="0.101562"/><stop stop-opacity="1" stop-color="rgb(56.30188%, 23.716736%, 98.199463%)" offset="0.105469"/><stop stop-opacity="1" stop-color="rgb(56.062317%, 23.936462%, 97.999573%)" offset="0.109375"/><stop stop-opacity="1" stop-color="rgb(55.871582%, 24.127197%, 97.999573%)" offset="0.117188"/><stop stop-opacity="1" stop-color="rgb(55.290222%, 24.508667%, 97.799683%)" offset="0.121094"/><stop stop-opacity="1" stop-color="rgb(54.899597%, 24.699402%, 97.599792%)" offset="0.125"/><stop stop-opacity="1" stop-color="rgb(54.708862%, 24.899292%, 97.599792%)" offset="0.128906"/><stop stop-opacity="1" stop-color="rgb(54.518127%, 25.099182%, 97.599792%)" offset="0.132812"/><stop stop-opacity="1" stop-color="rgb(54.327393%, 25.299072%, 97.599792%)" offset="0.136719"/><stop stop-opacity="1" stop-color="rgb(54.136658%, 25.498962%, 97.599792%)" offset="0.140625"/><stop stop-opacity="1" stop-color="rgb(53.895569%, 25.720215%, 97.44873%)" offset="0.144531"/><stop stop-opacity="1" stop-color="rgb(53.656006%, 25.942993%, 97.299194%)" offset="0.148438"/><stop stop-opacity="1" stop-color="rgb(53.465271%, 26.133728%, 97.299194%)" offset="0.15625"/><stop stop-opacity="1" stop-color="rgb(53.083801%, 26.515198%, 97.299194%)" offset="0.164063"/><stop stop-opacity="1" stop-color="rgb(52.696228%, 26.902771%, 97.105408%)" offset="0.167969"/><stop stop-opacity="1" stop-color="rgb(52.49939%, 27.099609%, 96.911621%)" offset="0.171875"/><stop stop-opacity="1" stop-color="rgb(52.165222%, 27.2995%, 96.905518%)" offset="0.175781"/><stop stop-opacity="1" stop-color="rgb(51.831055%, 27.49939%, 96.899414%)" offset="0.179688"/><stop stop-opacity="1" stop-color="rgb(51.64032%, 27.648926%, 96.899414%)" offset="0.1875"/><stop stop-opacity="1" stop-color="rgb(51.223755%, 28.015137%, 96.699524%)" offset="0.191406"/><stop stop-opacity="1" stop-color="rgb(50.999451%, 28.230286%, 96.499634%)" offset="0.195312"/><stop stop-opacity="1" stop-color="rgb(50.793457%, 28.421021%, 96.499634%)" offset="0.199219"/><stop stop-opacity="1" stop-color="rgb(50.587463%, 28.611755%, 96.499634%)" offset="0.203125"/><stop stop-opacity="1" stop-color="rgb(50.393677%, 28.805542%, 96.499634%)" offset="0.210937"/><stop stop-opacity="1" stop-color="rgb(49.998474%, 29.199219%, 96.311951%)" offset="0.214844"/><stop stop-opacity="1" stop-color="rgb(49.798584%, 29.399109%, 96.124268%)" offset="0.21875"/><stop stop-opacity="1" stop-color="rgb(49.420166%, 29.598999%, 96.112061%)" offset="0.222656"/><stop stop-opacity="1" stop-color="rgb(49.043274%, 29.798889%, 96.099854%)" offset="0.226562"/><stop stop-opacity="1" stop-color="rgb(48.820496%, 30.01709%, 96.099854%)" offset="0.230469"/><stop stop-opacity="1" stop-color="rgb(48.599243%, 30.236816%, 96.099854%)" offset="0.234375"/><stop stop-opacity="1" stop-color="rgb(48.399353%, 30.427551%, 95.898438%)" offset="0.238281"/><stop stop-opacity="1" stop-color="rgb(48.199463%, 30.618286%, 95.698547%)" offset="0.242188"/><stop stop-opacity="1" stop-color="rgb(47.999573%, 30.809021%, 95.698547%)" offset="0.246094"/><stop stop-opacity="1" stop-color="rgb(47.799683%, 30.999756%, 95.698547%)" offset="0.25"/><stop stop-opacity="1" stop-color="rgb(47.648621%, 31.390381%, 95.698547%)" offset="0.253906"/><stop stop-opacity="1" stop-color="rgb(47.499084%, 31.781006%, 95.698547%)" offset="0.257813"/><stop stop-opacity="1" stop-color="rgb(47.299194%, 31.971741%, 95.498657%)" offset="0.261719"/><stop stop-opacity="1" stop-color="rgb(47.099304%, 32.162476%, 95.298767%)" offset="0.265625"/><stop stop-opacity="1" stop-color="rgb(46.876526%, 32.330322%, 95.298767%)" offset="0.269531"/><stop stop-opacity="1" stop-color="rgb(46.655273%, 32.499695%, 95.298767%)" offset="0.273438"/><stop stop-opacity="1" stop-color="rgb(46.276855%, 32.699585%, 95.28656%)" offset="0.277344"/><stop stop-opacity="1" stop-color="rgb(45.899963%, 32.899475%, 95.274353%)" offset="0.28125"/><stop stop-opacity="1" stop-color="rgb(45.698547%, 33.099365%, 95.08667%)" offset="0.285156"/><stop stop-opacity="1" stop-color="rgb(45.498657%, 33.299255%, 94.898987%)" offset="0.289063"/><stop stop-opacity="1" stop-color="rgb(45.304871%, 33.493042%, 94.898987%)" offset="0.296875"/><stop stop-opacity="1" stop-color="rgb(44.90509%, 33.877563%, 94.898987%)" offset="0.300781"/><stop stop-opacity="1" stop-color="rgb(44.699097%, 34.068298%, 94.898987%)" offset="0.304688"/><stop stop-opacity="1" stop-color="rgb(44.499207%, 34.259033%, 94.699097%)" offset="0.308594"/><stop stop-opacity="1" stop-color="rgb(44.299316%, 34.449768%, 94.499207%)" offset="0.3125"/><stop stop-opacity="1" stop-color="rgb(44.082642%, 34.674072%, 94.499207%)" offset="0.316406"/><stop stop-opacity="1" stop-color="rgb(43.867493%, 34.899902%, 94.499207%)" offset="0.320313"/><stop stop-opacity="1" stop-color="rgb(43.482971%, 35.099792%, 94.493103%)" offset="0.324219"/><stop stop-opacity="1" stop-color="rgb(43.099976%, 35.299683%, 94.487%)" offset="0.328125"/><stop stop-opacity="1" stop-color="rgb(42.901611%, 35.496521%, 94.293213%)" offset="0.332031"/><stop stop-opacity="1" stop-color="rgb(42.704773%, 35.693359%, 94.099426%)" offset="0.335938"/><stop stop-opacity="1" stop-color="rgb(42.56134%, 35.884094%, 94.099426%)" offset="0.34375"/><stop stop-opacity="1" stop-color="rgb(42.230225%, 36.264038%, 94.099426%)" offset="0.351562"/><stop stop-opacity="1" stop-color="rgb(41.801453%, 36.676025%, 93.899536%)" offset="0.355469"/><stop stop-opacity="1" stop-color="rgb(41.56189%, 36.898804%, 93.699646%)" offset="0.359375"/><stop stop-opacity="1" stop-color="rgb(41.371155%, 37.098694%, 93.699646%)" offset="0.363281"/><stop stop-opacity="1" stop-color="rgb(41.18042%, 37.298584%, 93.699646%)" offset="0.367188"/><stop stop-opacity="1" stop-color="rgb(40.789795%, 37.44812%, 93.499756%)" offset="0.371094"/><stop stop-opacity="1" stop-color="rgb(40.39917%, 37.599182%, 93.299866%)" offset="0.375"/><stop stop-opacity="1" stop-color="rgb(40.208435%, 37.789917%, 93.299866%)" offset="0.382812"/><stop stop-opacity="1" stop-color="rgb(39.826965%, 38.171387%, 93.299866%)" offset="0.390625"/><stop stop-opacity="1" stop-color="rgb(39.395142%, 38.580322%, 93.09845%)" offset="0.394531"/><stop stop-opacity="1" stop-color="rgb(39.155579%, 38.798523%, 92.89856%)" offset="0.398438"/><stop stop-opacity="1" stop-color="rgb(38.964844%, 38.998413%, 92.89856%)" offset="0.402344"/><stop stop-opacity="1" stop-color="rgb(38.774109%, 39.199829%, 92.89856%)" offset="0.40625"/><stop stop-opacity="1" stop-color="rgb(38.583374%, 39.399719%, 92.89856%)" offset="0.410156"/><stop stop-opacity="1" stop-color="rgb(38.392639%, 39.599609%, 92.89856%)" offset="0.414062"/><stop stop-opacity="1" stop-color="rgb(38.195801%, 39.793396%, 92.704773%)" offset="0.417969"/><stop stop-opacity="1" stop-color="rgb(37.998962%, 39.987183%, 92.510986%)" offset="0.421875"/><stop stop-opacity="1" stop-color="rgb(37.660217%, 40.177917%, 92.504883%)" offset="0.425781"/><stop stop-opacity="1" stop-color="rgb(37.322998%, 40.368652%, 92.498779%)" offset="0.429687"/><stop stop-opacity="1" stop-color="rgb(37.135315%, 40.557861%, 92.498779%)" offset="0.4375"/><stop stop-opacity="1" stop-color="rgb(36.723328%, 40.9729%, 92.349243%)" offset="0.441406"/><stop stop-opacity="1" stop-color="rgb(36.499023%, 41.19873%, 92.199707%)" offset="0.445312"/><stop stop-opacity="1" stop-color="rgb(36.29303%, 41.398621%, 92.199707%)" offset="0.449219"/><stop stop-opacity="1" stop-color="rgb(36.087036%, 41.598511%, 92.199707%)" offset="0.453125"/><stop stop-opacity="1" stop-color="rgb(35.89325%, 41.795349%, 92.199707%)" offset="0.457031"/><stop stop-opacity="1" stop-color="rgb(35.699463%, 41.993713%, 92.199707%)" offset="0.460937"/><stop stop-opacity="1" stop-color="rgb(35.499573%, 42.182922%, 92.012024%)" offset="0.464844"/><stop stop-opacity="1" stop-color="rgb(35.299683%, 42.373657%, 91.824341%)" offset="0.46875"/><stop stop-opacity="1" stop-color="rgb(34.921265%, 42.520142%, 91.812134%)" offset="0.472656"/><stop stop-opacity="1" stop-color="rgb(34.542847%, 42.666626%, 91.799927%)" offset="0.476562"/><stop stop-opacity="1" stop-color="rgb(34.320068%, 42.883301%, 91.799927%)" offset="0.480469"/><stop stop-opacity="1" stop-color="rgb(34.098816%, 43.099976%, 91.799927%)" offset="0.484375"/><stop stop-opacity="1" stop-color="rgb(33.898926%, 43.299866%, 91.598511%)" offset="0.488281"/><stop stop-opacity="1" stop-color="rgb(33.699036%, 43.499756%, 91.398621%)" offset="0.492187"/><stop stop-opacity="1" stop-color="rgb(33.499146%, 43.699646%, 91.398621%)" offset="0.496094"/><stop stop-opacity="1" stop-color="rgb(33.299255%, 43.899536%, 91.398621%)" offset="0.5"/><stop stop-opacity="1" stop-color="rgb(33.099365%, 44.099426%, 91.398621%)" offset="0.503906"/><stop stop-opacity="1" stop-color="rgb(32.899475%, 44.299316%, 91.398621%)" offset="0.507812"/><stop stop-opacity="1" stop-color="rgb(32.699585%, 44.499207%, 91.19873%)" offset="0.511719"/><stop stop-opacity="1" stop-color="rgb(32.499695%, 44.699097%, 90.99884%)" offset="0.515625"/><stop stop-opacity="1" stop-color="rgb(32.327271%, 44.920349%, 90.99884%)" offset="0.519531"/><stop stop-opacity="1" stop-color="rgb(32.154846%, 45.143127%, 90.99884%)" offset="0.523438"/><stop stop-opacity="1" stop-color="rgb(31.776428%, 45.333862%, 90.986633%)" offset="0.527344"/><stop stop-opacity="1" stop-color="rgb(31.399536%, 45.524597%, 90.974426%)" offset="0.53125"/><stop stop-opacity="1" stop-color="rgb(31.199646%, 45.715332%, 90.786743%)" offset="0.535156"/><stop stop-opacity="1" stop-color="rgb(30.999756%, 45.906067%, 90.59906%)" offset="0.539062"/><stop stop-opacity="1" stop-color="rgb(30.805969%, 46.102905%, 90.59906%)" offset="0.542969"/><stop stop-opacity="1" stop-color="rgb(30.612183%, 46.299744%, 90.59906%)" offset="0.546875"/><stop stop-opacity="1" stop-color="rgb(30.404663%, 46.499634%, 90.59906%)" offset="0.550781"/><stop stop-opacity="1" stop-color="rgb(30.198669%, 46.699524%, 90.59906%)" offset="0.554688"/><stop stop-opacity="1" stop-color="rgb(29.998779%, 46.899414%, 90.39917%)" offset="0.558594"/><stop stop-opacity="1" stop-color="rgb(29.798889%, 47.099304%, 90.19928%)" offset="0.5625"/><stop stop-opacity="1" stop-color="rgb(29.58374%, 47.309875%, 90.19928%)" offset="0.566406"/><stop stop-opacity="1" stop-color="rgb(29.368591%, 47.521973%, 90.19928%)" offset="0.570313"/><stop stop-opacity="1" stop-color="rgb(28.98407%, 47.666931%, 90.193176%)" offset="0.574219"/><stop stop-opacity="1" stop-color="rgb(28.599548%, 47.81189%, 90.187073%)" offset="0.578125"/><stop stop-opacity="1" stop-color="rgb(28.40271%, 48.005676%, 89.993286%)" offset="0.582031"/><stop stop-opacity="1" stop-color="rgb(28.205872%, 48.199463%, 89.7995%)" offset="0.585938"/><stop stop-opacity="1" stop-color="rgb(28.015137%, 48.399353%, 89.7995%)" offset="0.589844"/><stop stop-opacity="1" stop-color="rgb(27.824402%, 48.599243%, 89.7995%)" offset="0.59375"/><stop stop-opacity="1" stop-color="rgb(27.677917%, 48.799133%, 89.7995%)" offset="0.597656"/><stop stop-opacity="1" stop-color="rgb(27.531433%, 48.999023%, 89.7995%)" offset="0.601562"/><stop stop-opacity="1" stop-color="rgb(27.296448%, 49.217224%, 89.599609%)" offset="0.605469"/><stop stop-opacity="1" stop-color="rgb(27.061462%, 49.436951%, 89.399719%)" offset="0.609375"/><stop stop-opacity="1" stop-color="rgb(26.870728%, 49.627686%, 89.399719%)" offset="0.617188"/><stop stop-opacity="1" stop-color="rgb(26.289368%, 50.009155%, 89.199829%)" offset="0.621094"/><stop stop-opacity="1" stop-color="rgb(25.898743%, 50.19989%, 88.999939%)" offset="0.625"/><stop stop-opacity="1" stop-color="rgb(25.708008%, 50.39978%, 88.999939%)" offset="0.628906"/><stop stop-opacity="1" stop-color="rgb(25.517273%, 50.59967%, 88.999939%)" offset="0.632813"/><stop stop-opacity="1" stop-color="rgb(25.326538%, 50.799561%, 88.999939%)" offset="0.636719"/><stop stop-opacity="1" stop-color="rgb(25.137329%, 50.999451%, 88.999939%)" offset="0.640625"/><stop stop-opacity="1" stop-color="rgb(24.89624%, 51.220703%, 88.798523%)" offset="0.644531"/><stop stop-opacity="1" stop-color="rgb(24.655151%, 51.443481%, 88.598633%)" offset="0.648438"/><stop stop-opacity="1" stop-color="rgb(24.464417%, 51.634216%, 88.598633%)" offset="0.65625"/><stop stop-opacity="1" stop-color="rgb(24.082947%, 52.01416%, 88.598633%)" offset="0.664062"/><stop stop-opacity="1" stop-color="rgb(23.695374%, 52.351379%, 88.404846%)" offset="0.667969"/><stop stop-opacity="1" stop-color="rgb(23.498535%, 52.49939%, 88.21106%)" offset="0.671875"/><stop stop-opacity="1" stop-color="rgb(23.114014%, 52.69928%, 88.204956%)" offset="0.675781"/><stop stop-opacity="1" stop-color="rgb(22.731018%, 52.89917%, 88.198853%)" offset="0.679688"/><stop stop-opacity="1" stop-color="rgb(22.583008%, 53.09906%, 88.198853%)" offset="0.683594"/><stop stop-opacity="1" stop-color="rgb(22.436523%, 53.29895%, 88.198853%)" offset="0.6875"/><stop stop-opacity="1" stop-color="rgb(22.216797%, 53.514099%, 87.998962%)" offset="0.691406"/><stop stop-opacity="1" stop-color="rgb(21.998596%, 53.730774%, 87.799072%)" offset="0.695313"/><stop stop-opacity="1" stop-color="rgb(21.792603%, 53.921509%, 87.799072%)" offset="0.699219"/><stop stop-opacity="1" stop-color="rgb(21.586609%, 54.112244%, 87.799072%)" offset="0.703125"/><stop stop-opacity="1" stop-color="rgb(21.392822%, 54.30603%, 87.799072%)" offset="0.710938"/><stop stop-opacity="1" stop-color="rgb(20.999146%, 54.699707%, 87.658691%)" offset="0.714844"/><stop stop-opacity="1" stop-color="rgb(20.799255%, 54.899597%, 87.518311%)" offset="0.71875"/><stop stop-opacity="1" stop-color="rgb(20.420837%, 55.099487%, 87.509155%)" offset="0.722656"/><stop stop-opacity="1" stop-color="rgb(20.042419%, 55.299377%, 87.5%)" offset="0.726562"/><stop stop-opacity="1" stop-color="rgb(19.821167%, 55.517578%, 87.5%)" offset="0.730469"/><stop stop-opacity="1" stop-color="rgb(19.599915%, 55.737305%, 87.5%)" offset="0.734375"/><stop stop-opacity="1" stop-color="rgb(19.398499%, 55.926514%, 87.298584%)" offset="0.738281"/><stop stop-opacity="1" stop-color="rgb(19.198608%, 56.117249%, 87.098694%)" offset="0.742188"/><stop stop-opacity="1" stop-color="rgb(18.998718%, 56.307983%, 87.098694%)" offset="0.746094"/><stop stop-opacity="1" stop-color="rgb(18.798828%, 56.498718%, 87.098694%)" offset="0.75"/><stop stop-opacity="1" stop-color="rgb(18.598938%, 56.889343%, 87.098694%)" offset="0.753906"/><stop stop-opacity="1" stop-color="rgb(18.399048%, 57.279968%, 87.098694%)" offset="0.757812"/><stop stop-opacity="1" stop-color="rgb(18.199158%, 57.424927%, 86.898804%)" offset="0.761719"/><stop stop-opacity="1" stop-color="rgb(17.999268%, 57.571411%, 86.698914%)" offset="0.765625"/><stop stop-opacity="1" stop-color="rgb(17.782593%, 57.785034%, 86.698914%)" offset="0.769531"/><stop stop-opacity="1" stop-color="rgb(17.565918%, 57.998657%, 86.698914%)" offset="0.773438"/><stop stop-opacity="1" stop-color="rgb(17.23175%, 58.198547%, 86.686707%)" offset="0.777344"/><stop stop-opacity="1" stop-color="rgb(16.899109%, 58.399963%, 86.6745%)" offset="0.78125"/><stop stop-opacity="1" stop-color="rgb(16.699219%, 58.599854%, 86.486816%)" offset="0.785156"/><stop stop-opacity="1" stop-color="rgb(16.499329%, 58.799744%, 86.299133%)" offset="0.789062"/><stop stop-opacity="1" stop-color="rgb(16.305542%, 58.99353%, 86.299133%)" offset="0.796875"/><stop stop-opacity="1" stop-color="rgb(15.905762%, 59.376526%, 86.299133%)" offset="0.800781"/><stop stop-opacity="1" stop-color="rgb(15.699768%, 59.567261%, 86.299133%)" offset="0.804687"/><stop stop-opacity="1" stop-color="rgb(15.499878%, 59.757996%, 86.099243%)" offset="0.808594"/><stop stop-opacity="1" stop-color="rgb(15.299988%, 59.94873%, 85.899353%)" offset="0.8125"/><stop stop-opacity="1" stop-color="rgb(15.083313%, 60.173035%, 85.899353%)" offset="0.816406"/><stop stop-opacity="1" stop-color="rgb(14.868164%, 60.398865%, 85.899353%)" offset="0.820312"/><stop stop-opacity="1" stop-color="rgb(14.483643%, 60.598755%, 85.89325%)" offset="0.824219"/><stop stop-opacity="1" stop-color="rgb(14.099121%, 60.798645%, 85.887146%)" offset="0.828125"/><stop stop-opacity="1" stop-color="rgb(13.902283%, 60.995483%, 85.693359%)" offset="0.832031"/><stop stop-opacity="1" stop-color="rgb(13.705444%, 61.192322%, 85.499573%)" offset="0.835938"/><stop stop-opacity="1" stop-color="rgb(13.514709%, 61.383057%, 85.499573%)" offset="0.84375"/><stop stop-opacity="1" stop-color="rgb(13.13324%, 61.764526%, 85.499573%)" offset="0.851562"/><stop stop-opacity="1" stop-color="rgb(12.705994%, 62.176514%, 85.299683%)" offset="0.855469"/><stop stop-opacity="1" stop-color="rgb(12.471008%, 62.399292%, 85.099792%)" offset="0.859375"/><stop stop-opacity="1" stop-color="rgb(12.32605%, 62.548828%, 85.099792%)" offset="0.867187"/><stop stop-opacity="1" stop-color="rgb(11.790466%, 62.89978%, 84.898376%)" offset="0.871094"/><stop stop-opacity="1" stop-color="rgb(11.399841%, 63.09967%, 84.698486%)" offset="0.875"/><stop stop-opacity="1" stop-color="rgb(11.209106%, 63.290405%, 84.698486%)" offset="0.882812"/><stop stop-opacity="1" stop-color="rgb(10.827637%, 63.670349%, 84.698486%)" offset="0.890625"/><stop stop-opacity="1" stop-color="rgb(10.395813%, 64.079285%, 84.498596%)" offset="0.894531"/><stop stop-opacity="1" stop-color="rgb(10.154724%, 64.299011%, 84.298706%)" offset="0.898438"/><stop stop-opacity="1" stop-color="rgb(9.963989%, 64.498901%, 84.298706%)" offset="0.902344"/><stop stop-opacity="1" stop-color="rgb(9.77478%, 64.698792%, 84.298706%)" offset="0.90625"/><stop stop-opacity="1" stop-color="rgb(9.584045%, 64.898682%, 84.298706%)" offset="0.910156"/><stop stop-opacity="1" stop-color="rgb(9.393311%, 65.098572%, 84.298706%)" offset="0.914062"/><stop stop-opacity="1" stop-color="rgb(9.196472%, 65.292358%, 84.104919%)" offset="0.917969"/><stop stop-opacity="1" stop-color="rgb(8.999634%, 65.486145%, 83.911133%)" offset="0.921875"/><stop stop-opacity="1" stop-color="rgb(8.615112%, 65.67688%, 83.905029%)" offset="0.925781"/><stop stop-opacity="1" stop-color="rgb(8.230591%, 65.867615%, 83.898926%)" offset="0.929687"/><stop stop-opacity="1" stop-color="rgb(8.039856%, 66.05835%, 83.898926%)" offset="0.9375"/><stop stop-opacity="1" stop-color="rgb(7.673645%, 66.473389%, 83.699036%)" offset="0.941406"/><stop stop-opacity="1" stop-color="rgb(7.499695%, 66.699219%, 83.499146%)" offset="0.945312"/><stop stop-opacity="1" stop-color="rgb(7.292175%, 66.899109%, 83.499146%)" offset="0.949219"/><stop stop-opacity="1" stop-color="rgb(7.086182%, 67.098999%, 83.499146%)" offset="0.953125"/><stop stop-opacity="1" stop-color="rgb(6.892395%, 67.295837%, 83.499146%)" offset="0.957031"/><stop stop-opacity="1" stop-color="rgb(6.698608%, 67.492676%, 83.499146%)" offset="0.960938"/><stop stop-opacity="1" stop-color="rgb(6.498718%, 67.636108%, 83.311462%)" offset="0.964844"/><stop stop-opacity="1" stop-color="rgb(6.298828%, 67.781067%, 83.123779%)" offset="0.96875"/><stop stop-opacity="1" stop-color="rgb(5.92041%, 67.967224%, 83.111572%)" offset="0.972656"/><stop stop-opacity="1" stop-color="rgb(5.543518%, 68.154907%, 83.099365%)" offset="0.976562"/><stop stop-opacity="1" stop-color="rgb(5.32074%, 68.37616%, 83.099365%)" offset="0.980469"/><stop stop-opacity="1" stop-color="rgb(5.099487%, 68.598938%, 83.099365%)" offset="0.984375"/><stop stop-opacity="1" stop-color="rgb(4.899597%, 68.798828%, 82.899475%)" offset="0.988281"/><stop stop-opacity="1" stop-color="rgb(4.699707%, 68.998718%, 82.699585%)" offset="0.992188"/><stop stop-opacity="1" stop-color="rgb(4.499817%, 69.198608%, 82.699585%)" offset="0.996094"/><stop stop-opacity="1" stop-color="rgb(4.299927%, 69.398499%, 82.699585%)" offset="1"/></linearGradient></defs><g clip-path="url(#2844ad92f3)"><g clip-path="url(#f7d0962e54)"><g clip-path="url(#147818dfa4)"><path fill="url(#748b56622c)" d="M 4.78125 219.636719 L 70.03125 219.636719 L 70.03125 154.386719 L 4.78125 154.386719 Z M 4.78125 219.636719 " fill-rule="nonzero"/></g></g></g><g fill="#23358b" fill-opacity="1"><g transform="translate(76.201046, 205.132591)"><g><path d="M 34.703125 -34.328125 L 22.078125 -34.328125 L 22.078125 0 L 13.59375 0 L 13.59375 -34.328125 L 1.125 -34.328125 L 1.125 -41.21875 L 34.703125 -41.21875 Z M 34.703125 -34.328125 "/></g></g></g><g fill="#23358b" fill-opacity="1"><g transform="translate(112.060941, 205.132591)"><g><path d="M 20.890625 0 C 20.515625 -0.738281 20.238281 -1.65625 20.0625 -2.75 C 18.082031 -0.539062 15.507812 0.5625 12.34375 0.5625 C 9.34375 0.5625 6.851562 -0.300781 4.875 -2.03125 C 2.90625 -3.769531 1.921875 -5.960938 1.921875 -8.609375 C 1.921875 -11.847656 3.125 -14.335938 5.53125 -16.078125 C 7.9375 -17.816406 11.414062 -18.691406 15.96875 -18.703125 L 19.734375 -18.703125 L 19.734375 -20.46875 C 19.734375 -21.882812 19.367188 -23.015625 18.640625 -23.859375 C 17.910156 -24.710938 16.765625 -25.140625 15.203125 -25.140625 C 13.828125 -25.140625 12.742188 -24.804688 11.953125 -24.140625 C 11.171875 -23.484375 10.78125 -22.578125 10.78125 -21.421875 L 2.609375 -21.421875 C 2.609375 -23.203125 3.15625 -24.84375 4.25 -26.34375 C 5.34375 -27.851562 6.890625 -29.035156 8.890625 -29.890625 C 10.890625 -30.753906 13.132812 -31.1875 15.625 -31.1875 C 19.394531 -31.1875 22.390625 -30.238281 24.609375 -28.34375 C 26.828125 -26.445312 27.9375 -23.78125 27.9375 -20.34375 L 27.9375 -7.078125 C 27.957031 -4.171875 28.363281 -1.972656 29.15625 -0.484375 L 29.15625 0 Z M 14.125 -5.6875 C 15.332031 -5.6875 16.445312 -5.953125 17.46875 -6.484375 C 18.488281 -7.023438 19.242188 -7.75 19.734375 -8.65625 L 19.734375 -13.921875 L 16.671875 -13.921875 C 12.578125 -13.921875 10.398438 -12.507812 10.140625 -9.6875 L 10.109375 -9.203125 C 10.109375 -8.179688 10.460938 -7.335938 11.171875 -6.671875 C 11.890625 -6.015625 12.875 -5.6875 14.125 -5.6875 Z M 14.125 -5.6875 "/></g></g></g><g fill="#23358b" fill-opacity="1"><g transform="translate(143.137625, 205.132591)"><g><path d="M 14.796875 -21.484375 L 19.953125 -30.625 L 28.703125 -30.625 L 19.984375 -15.625 L 29.0625 0 L 20.296875 0 L 14.828125 -9.625 L 9.390625 0 L 0.59375 0 L 9.6875 -15.625 L 0.984375 -30.625 L 9.765625 -30.625 Z M 14.796875 -21.484375 "/></g></g></g><g fill="#23358b" fill-opacity="1"><g transform="translate(172.629341, 205.132591)"><g><path d="M 25.046875 -10.8125 C 25.046875 -12.414062 24.476562 -13.644531 23.34375 -14.5 C 22.21875 -15.363281 20.179688 -16.269531 17.234375 -17.21875 C 14.296875 -18.175781 11.96875 -19.117188 10.25 -20.046875 C 5.570312 -22.566406 3.234375 -25.972656 3.234375 -30.265625 C 3.234375 -32.484375 3.859375 -34.460938 5.109375 -36.203125 C 6.359375 -37.953125 8.160156 -39.316406 10.515625 -40.296875 C 12.867188 -41.285156 15.503906 -41.78125 18.421875 -41.78125 C 21.367188 -41.78125 23.992188 -41.242188 26.296875 -40.171875 C 28.597656 -39.109375 30.382812 -37.601562 31.65625 -35.65625 C 32.925781 -33.71875 33.5625 -31.515625 33.5625 -29.046875 L 25.078125 -29.046875 C 25.078125 -30.929688 24.484375 -32.394531 23.296875 -33.4375 C 22.109375 -34.488281 20.4375 -35.015625 18.28125 -35.015625 C 16.207031 -35.015625 14.59375 -34.570312 13.4375 -33.6875 C 12.289062 -32.8125 11.71875 -31.660156 11.71875 -30.234375 C 11.71875 -28.890625 12.390625 -27.765625 13.734375 -26.859375 C 15.085938 -25.953125 17.078125 -25.101562 19.703125 -24.3125 C 24.535156 -22.863281 28.050781 -21.0625 30.25 -18.90625 C 32.457031 -16.757812 33.5625 -14.082031 33.5625 -10.875 C 33.5625 -7.300781 32.210938 -4.5 29.515625 -2.46875 C 26.816406 -0.445312 23.1875 0.5625 18.625 0.5625 C 15.457031 0.5625 12.570312 -0.015625 9.96875 -1.171875 C 7.363281 -2.335938 5.375 -3.925781 4 -5.9375 C 2.632812 -7.957031 1.953125 -10.300781 1.953125 -12.96875 L 10.46875 -12.96875 C 10.46875 -8.414062 13.1875 -6.140625 18.625 -6.140625 C 20.644531 -6.140625 22.21875 -6.550781 23.34375 -7.375 C 24.476562 -8.195312 25.046875 -9.34375 25.046875 -10.8125 Z M 25.046875 -10.8125 "/></g></g></g><g fill="#23358b" fill-opacity="1"><g transform="translate(208.262812, 205.132591)"><g><path d="M 12.9375 -38.15625 L 12.9375 -30.625 L 18.171875 -30.625 L 18.171875 -24.625 L 12.9375 -24.625 L 12.9375 -9.34375 C 12.9375 -8.207031 13.148438 -7.394531 13.578125 -6.90625 C 14.015625 -6.414062 14.847656 -6.171875 16.078125 -6.171875 C 16.984375 -6.171875 17.785156 -6.238281 18.484375 -6.375 L 18.484375 -0.171875 C 16.878906 0.316406 15.226562 0.5625 13.53125 0.5625 C 7.789062 0.5625 4.863281 -2.332031 4.75 -8.125 L 4.75 -24.625 L 0.28125 -24.625 L 0.28125 -30.625 L 4.75 -30.625 L 4.75 -38.15625 Z M 12.9375 -38.15625 "/></g></g></g><g fill="#23358b" fill-opacity="1"><g transform="translate(227.848481, 205.132591)"><g><path d="M 20.890625 0 C 20.515625 -0.738281 20.238281 -1.65625 20.0625 -2.75 C 18.082031 -0.539062 15.507812 0.5625 12.34375 0.5625 C 9.34375 0.5625 6.851562 -0.300781 4.875 -2.03125 C 2.90625 -3.769531 1.921875 -5.960938 1.921875 -8.609375 C 1.921875 -11.847656 3.125 -14.335938 5.53125 -16.078125 C 7.9375 -17.816406 11.414062 -18.691406 15.96875 -18.703125 L 19.734375 -18.703125 L 19.734375 -20.46875 C 19.734375 -21.882812 19.367188 -23.015625 18.640625 -23.859375 C 17.910156 -24.710938 16.765625 -25.140625 15.203125 -25.140625 C 13.828125 -25.140625 12.742188 -24.804688 11.953125 -24.140625 C 11.171875 -23.484375 10.78125 -22.578125 10.78125 -21.421875 L 2.609375 -21.421875 C 2.609375 -23.203125 3.15625 -24.84375 4.25 -26.34375 C 5.34375 -27.851562 6.890625 -29.035156 8.890625 -29.890625 C 10.890625 -30.753906 13.132812 -31.1875 15.625 -31.1875 C 19.394531 -31.1875 22.390625 -30.238281 24.609375 -28.34375 C 26.828125 -26.445312 27.9375 -23.78125 27.9375 -20.34375 L 27.9375 -7.078125 C 27.957031 -4.171875 28.363281 -1.972656 29.15625 -0.484375 L 29.15625 0 Z M 14.125 -5.6875 C 15.332031 -5.6875 16.445312 -5.953125 17.46875 -6.484375 C 18.488281 -7.023438 19.242188 -7.75 19.734375 -8.65625 L 19.734375 -13.921875 L 16.671875 -13.921875 C 12.578125 -13.921875 10.398438 -12.507812 10.140625 -9.6875 L 10.109375 -9.203125 C 10.109375 -8.179688 10.460938 -7.335938 11.171875 -6.671875 C 11.890625 -6.015625 12.875 -5.6875 14.125 -5.6875 Z M 14.125 -5.6875 "/></g></g></g><g fill="#23358b" fill-opacity="1"><g transform="translate(258.925165, 205.132591)"><g><path d="M 12.9375 -38.15625 L 12.9375 -30.625 L 18.171875 -30.625 L 18.171875 -24.625 L 12.9375 -24.625 L 12.9375 -9.34375 C 12.9375 -8.207031 13.148438 -7.394531 13.578125 -6.90625 C 14.015625 -6.414062 14.847656 -6.171875 16.078125 -6.171875 C 16.984375 -6.171875 17.785156 -6.238281 18.484375 -6.375 L 18.484375 -0.171875 C 16.878906 0.316406 15.226562 0.5625 13.53125 0.5625 C 7.789062 0.5625 4.863281 -2.332031 4.75 -8.125 L 4.75 -24.625 L 0.28125 -24.625 L 0.28125 -30.625 L 4.75 -30.625 L 4.75 -38.15625 Z M 12.9375 -38.15625 "/></g></g></g><g fill="#23358b" fill-opacity="1"><g transform="translate(278.510846, 205.132591)"><g><path d="M 19.734375 -8.46875 C 19.734375 -9.46875 19.234375 -10.253906 18.234375 -10.828125 C 17.242188 -11.398438 15.65625 -11.914062 13.46875 -12.375 C 6.1875 -13.894531 2.546875 -16.988281 2.546875 -21.65625 C 2.546875 -24.375 3.671875 -26.640625 5.921875 -28.453125 C 8.179688 -30.273438 11.132812 -31.1875 14.78125 -31.1875 C 18.664062 -31.1875 21.769531 -30.269531 24.09375 -28.4375 C 26.425781 -26.613281 27.59375 -24.238281 27.59375 -21.3125 L 19.421875 -21.3125 C 19.421875 -22.476562 19.039062 -23.441406 18.28125 -24.203125 C 17.53125 -24.972656 16.351562 -25.359375 14.75 -25.359375 C 13.375 -25.359375 12.304688 -25.046875 11.546875 -24.421875 C 10.796875 -23.804688 10.421875 -23.015625 10.421875 -22.046875 C 10.421875 -21.140625 10.847656 -20.40625 11.703125 -19.84375 C 12.554688 -19.289062 14.003906 -18.8125 16.046875 -18.40625 C 18.085938 -18 19.804688 -17.546875 21.203125 -17.046875 C 25.523438 -15.453125 27.6875 -12.703125 27.6875 -8.796875 C 27.6875 -6.003906 26.488281 -3.742188 24.09375 -2.015625 C 21.695312 -0.296875 18.597656 0.5625 14.796875 0.5625 C 12.234375 0.5625 9.957031 0.109375 7.96875 -0.796875 C 5.976562 -1.710938 4.414062 -2.96875 3.28125 -4.5625 C 2.144531 -6.164062 1.578125 -7.890625 1.578125 -9.734375 L 9.34375 -9.734375 C 9.414062 -8.285156 9.953125 -7.171875 10.953125 -6.390625 C 11.953125 -5.617188 13.289062 -5.234375 14.96875 -5.234375 C 16.539062 -5.234375 17.726562 -5.53125 18.53125 -6.125 C 19.332031 -6.71875 19.734375 -7.5 19.734375 -8.46875 Z M 19.734375 -8.46875 "/></g></g></g><g fill="#f84723" fill-opacity="1"><g transform="translate(314.331809, 205.132591)"><g><path d="M 26.953125 -8.484375 L 12.0625 -8.484375 L 9.234375 0 L 0.203125 0 L 15.546875 -41.21875 L 23.40625 -41.21875 L 38.828125 0 L 29.8125 0 Z M 14.34375 -15.375 L 24.65625 -15.375 L 19.46875 -30.796875 Z M 14.34375 -15.375 "/></g></g></g><g fill="#f84723" fill-opacity="1"><g transform="translate(353.33333, 205.132591)"><g><path d="M 12.703125 0 L 4.21875 0 L 4.21875 -41.21875 L 12.703125 -41.21875 Z M 12.703125 0 "/></g></g></g></svg>